PathFileType	4	(X/Y/Z)	C:/Users/beibeiliu/ov580/test_trc/capture2\sequence.8_training_dense_right.trc
DataRate	CameraRate	NumFrames	NumMarkers	Units	OrigDataRate	OrigDataStartFrame	OrigNumFrames
120	120	14	19	mm	120	101	400
Frame#	Time	ThumbCMC			ThumbMCP			ThumbIP			ThumbTip			IndexMCP			IndexPIP			IndexTip			MiddleMCP			MiddlePIP			MiddleTip			RingMCP			RingPIP			RingTip			PinkyMCP			PinkyPIP			PinkyTip			BackHand1			BackHand2			BackHand3	
		X0	Y0	Z0	X1	Y1	Z1	X2	Y2	Z2	X3	Y3	Z3	X4	Y4	Z4	X5	Y5	Z5	X6	Y6	Z6	X7	Y7	Z7	X8	Y8	Z8	X9	Y9	Z9	X10	Y10	Z10	X11	Y11	Z11	X12	Y12	Z12	X13	Y13	Z13	X14	Y14	Z14	X15	Y15	Z15	X16	Y16	Z16	X17	Y17	Z17	X18	Y18	Z18	
100	0.833333	214.174	78.7458	-21.4945	220.574	94.8945	-42.1008	234.014	109.594	-57.2207	250.052	118.689	-73.2204	269.037	52.8117	-65.2332	287.971	56.2825	-81.5759	304.451	51.0695	-93.2668	267.683	25.2511	-66.9078	285.092	16.6151	-83.4954	304.427	9.68892	-96.9819	251.868	5.0718	-67.1803	266.755	-6.1775	-84.6728	283.81	-19.2777	-103.573	227.418	-9.20669	-64.6521	233.649	-22.6871	-79.7516	240.085	-45.1983	-90.4317	228.038	18.9147	-28.5388	210.698	17.7624	-4.91707	232.448	46.6487	-14.4663	
101	0.841667	215.834	80.5809	-23.2616	220.214	91.6061	-45.2099	236.178	110.772	-59.1706	244.584	122.075	-69.3747	270.339	57.718	-65.1353	285.362	58.9086	-80.4012	306.35	52.871	-94.5344	268.948	25.4615	-66.8618	283.679	20.4845	-81.8259	307.671	10.0893	-97.3461	254.186	8.2055	-67.6872	266.35	-4.77166	-84.6158	283.332	-16.022	-101.635	227.664	-6.51888	-64.8978	233.782	-24.2947	-81.0222	242.343	-44.7755	-89.068	224.651	17.5244	-26.5545	208.829	21.5819	-4.09789	230.813	45.2573	-14.8151	
102	0.85	211.823	77.7529	-22.8922	216.444	94.0593	-43.6489	231.965	112.237	-59.4632	239.535	121.131	-71.2624	266.268	56.5168	-64.407	282.53	57.9686	-80.8517	303.023	54.851	-94.4516	265.983	27.053	-65.3618	284.586	19.3249	-82.5828	307.135	8.31418	-98.0607	250.122	7.63042	-66.9194	265.369	-2.86977	-83.5912	282.219	-14.4185	-100.043	228.866	-8.91601	-66.1282	232.734	-23.8974	-79.6889	240.386	-43.9238	-88.2983	228.607	18.027	-29.8372	208.268	19.5742	-2.62508	229.026	45.3074	-14.4068	
103	0.858333	210.267	82.9728	-21.3376	214.226	94.8348	-44.1716	227.965	110.629	-59.6373	241.066	126.511	-73.0621	266.727	56.999	-68.1047	283.522	63.1146	-84.3157	303.081	61.7188	-96.1707	263.909	27.7427	-67.0708	284.338	24.6888	-84.1106	304.994	16.7244	-97.7592	252.423	10.2839	-69.0034	263.447	-1.02306	-83.9701	280.208	-12.8378	-100.396	227.148	-8.71269	-66.1351	233.102	-20.5919	-78.4705	241.853	-41.0427	-86.9411	226.439	17.863	-29.6308	209.312	22.5357	-3.71155	229.55	51.6143	-13.9085	
104	0.866667	207.546	79.8569	-22.2462	214.739	99.3669	-44.0196	227.803	111.775	-60.8778	237.107	125.029	-72.6705	264.9	63.481	-65.4855	283.128	66.5882	-83.7436	300.817	60.3549	-97.0865	267.692	34.0066	-67.8173	282.378	24.9532	-83.7972	303.058	16.0082	-98.0867	251.207	10.5624	-68.931	266.997	1.88347	-85.2783	280.474	-13.2951	-102.441	226.595	-4.72825	-64.5942	232.408	-21.0518	-78.7087	245.39	-41.8376	-89.8924	224.837	20.6417	-27.1823	206.779	22.6111	-4.22415	225.688	49.0568	-15.248	
105	0.875	209.463	82.3685	-22.7707	213.603	100.438	-44.3856	227.679	116.854	-61.075	238.46	128.457	-74.368	266.013	64.7211	-67.5682	280.823	68.3398	-83.7743	298.961	64.9413	-96.0996	265.797	34.364	-68.7553	280.156	27.9928	-83.4279	303.494	19.5204	-99.2267	254.039	13.8953	-70.8473	267.927	4.23834	-86.5469	281.101	-7.16822	-100.837	227.633	-3.44377	-65.8191	236.029	-20.2607	-81.7373	243.931	-38.8007	-90.0862	226.401	22.2379	-30.8061	209.665	25.8819	-5.101	228.384	53.6963	-17.7987	
106	0.883333	208.344	87.2354	-22.4691	211.633	101.821	-43.8001	225.943	117.123	-61.7084	233.495	128.128	-74.1223	264.366	63.6827	-69.2012	278.463	66.8725	-83.7853	300.574	65.7897	-96.942	265.529	33.8849	-70.1766	283.434	28.5104	-85.0808	307.098	20.7083	-100.14	253.831	15.824	-70.3062	266.084	6.11698	-85.3946	282.224	-3.3411	-101.352	225.938	-2.39142	-65.3408	234.077	-21.7996	-81.6654	241.483	-39.0404	-88.8422	226.985	19.3926	-30.5715	208.488	22.5756	-5.20136	229.309	53.4452	-18.4424	
107	0.891667	204.436	87.244	-24.1463	208.326	98.3699	-48.7577	221.807	117.122	-64.811	229.915	132.614	-76.3155	262.54	69.0797	-68.3889	279.684	75.4219	-85.1255	301.12	72.2322	-99.3243	267.226	39.4688	-71.0195	282.928	35.3546	-86.0804	302.202	24.8067	-99.0213	253.046	19.0699	-71.1863	268.135	4.67441	-87.3545	284.147	-0.616827	-102.615	229.384	-3.0483	-67.8879	235.862	-15.9096	-79.5558	248.991	-34.8937	-90.7148	226.219	22.0326	-31.8992	212.163	26.7836	-8.08558	226.67	55.8794	-18.0094	
108	0.9	200.048	85.5692	-25.1443	204.786	103.294	-49.6632	213.628	122.817	-63.8625	223.252	134.286	-78.664	258.477	73.123	-68.4219	277.772	79.326	-87.0379	297.536	80.3452	-99.3577	261.479	47.2109	-68.6678	280.82	38.6718	-85.3245	303.42	36.3473	-99.9519	255.487	22.6248	-72.6657	269.241	11.005	-86.6624	288.308	2.48086	-102.891	233.688	-0.050411	-69.9773	239.768	-10.3611	-81.3572	252.566	-31.3467	-89.9738	225.313	25.3697	-31.6649	212.672	31.1803	-7.4915	226.312	59.1135	-17.7201	
109	0.908333	195.982	90.2886	-25.2594	197.448	102.593	-47.8256	208.197	123.759	-66.341	215.899	137.322	-79.5697	253.279	82.071	-67.0766	269.531	87.7051	-84.6043	294.02	89.367	-97.9904	264.264	51.7405	-71.2313	280.874	53.9336	-86.1191	302.938	46.6797	-98.4874	255.178	27.7639	-70.8287	269.858	20.6579	-84.1817	290.004	15.1016	-101.039	238.072	8.9906	-68.675	246.144	-5.92851	-83.0585	260.172	-20.3528	-93.5278	226.895	32.2645	-31.2182	212.828	31.3605	-6.62875	220.571	63.0232	-18.1253	
110	0.916667	192.458	92.3427	-27.3299	190.753	105.651	-49.3196	197.043	126.42	-62.9956	204.667	143.152	-77.2168	249.781	85.3542	-67.2764	267.4	95.529	-86.0079	286.255	102.023	-95.8108	259.746	65.4013	-67.9253	282.405	63.2011	-86.9828	304.555	62.5754	-98.3994	254.754	38.499	-68.6879	276.218	36.6608	-85.8852	291.789	32.331	-99.6268	241.926	14.9726	-67.8695	252.349	6.58298	-83.741	268.52	-11.2352	-92.5653	227.19	36.3299	-29.7247	209.866	36.0061	-5.51001	220.842	68.7716	-18.369	
111	0.925	184.833	88.3854	-27.8873	181.74	102.685	-48.9439	185.317	124.969	-62.0301	190.433	141.077	-76.2117	244.259	95.5909	-66.9152	259.747	107.18	-83.8703	277.942	115.823	-94.9533	257.69	73.2533	-67.4251	275.256	78.8262	-83.2762	303.169	81.6253	-97.8597	257.125	48.1864	-68.1993	275.17	50.3015	-84.2999	297.629	48.7844	-99.4492	244.459	26.148	-66.5774	258.727	16.5846	-82.9865	276.136	5.1296	-92.3576	230.194	47.7677	-31.0394	213.85	38.0294	-6.03625	213.845	73.6127	-14.966	
112	0.933333	177.996	89.0017	-27.5129	176.717	102.033	-50.6699	175.329	123.571	-63.078	176.467	142.79	-76.4541	233.915	106.318	-66.3847	251.37	117.65	-83.4064	266.394	125.826	-92.1223	254.971	88.7271	-69.0428	271.446	90.2377	-81.0632	295.041	101.241	-94.9616	257.666	64.3692	-67.7765	276.498	65.3851	-83.0045	298.623	66.8298	-97.9907	249.748	34.4374	-65.4256	266.367	26.8778	-80.7141	285.238	22.2855	-93.1669	232.695	53.1623	-29.4047	215.049	45.2228	-5.72783	209.325	77.7425	-18.3433	
113	0.941667	169.122	88.9724	-25.3621	162.818	102.14	-46.6605	164.187	125.95	-62.669	161.388	140.258	-73.9693	227.348	112.663	-65.1169	236.313	128.054	-80.0744	259.347	140.144	-90.4564	249.085	93.7975	-65.8823	269.886	104.323	-82.0914	285.631	114.449	-91.8503	254.485	76.3235	-67.6549	274.967	76.5322	-80.5536	295.429	86.2867	-95.6341	254.981	46.0508	-66.0668	270.171	45.1733	-81.2038	288.578	39.0742	-89.043	229.841	62.0271	-30.1881	211.214	50.4051	-4.45001	202.616	81.6338	-16.627	
